<svg xmlns="http://www.w3.org/2000/svg" xmlns:xlink="http://www.w3.org/1999/xlink" width="1000" zoomAndPan="magnify" viewBox="0 0 750 165.000002" height="220" preserveAspectRatio="xMidYMid meet" version="1.0"><defs><g/><clipPath id="0d140deef3"><path d="M 11 0 L 745 0 L 745 164.007812 L 11 164.007812 Z M 11 0 " clip-rule="nonzero"/></clipPath><clipPath id="ef2c9047cb"><path d="M 0.804688 1.585938 L 150.898438 1.585938 L 150.898438 163.6875 L 0.804688 163.6875 Z M 0.804688 1.585938 " clip-rule="nonzero"/></clipPath><clipPath id="bae753ebd1"><path d="M 182 0 L 733.164062 0 L 733.164062 164.007812 L 182 164.007812 Z M 182 0 " clip-rule="nonzero"/></clipPath><clipPath id="fc86f7ffcc"><rect x="0" width="552" y="0" height="165"/></clipPath><clipPath id="53d5358a01"><rect x="0" width="734" y="0" height="165"/></clipPath></defs><g clip-path="url(#0d140deef3)"><g transform="matrix(1, 0, 0, 1, 11, 0.000000000000012869)"><g clip-path="url(#53d5358a01)"><g clip-path="url(#ef2c9047cb)"><path fill="#8c52ff" d="M 129.652344 1.578125 L 30.539062 1.578125 C 18.644531 1.578125 8.242188 8.757812 8.242188 20.65625 L 8.242188 91.226562 L 40.320312 45.875 L 58.675781 45.875 L 0.855469 132.003906 L 24.835938 132.003906 L 92.625 33.566406 L 110.980469 33.566406 L 21.195312 164 L 46.382812 164 L 104.253906 77.863281 L 122.609375 77.863281 L 79.207031 141.851562 L 129.648438 141.851562 C 141.546875 141.851562 150.972656 131.660156 150.972656 119.765625 L 150.972656 20.65625 C 150.972656 8.757812 141.546875 1.578125 129.648438 1.578125 Z M 129.652344 1.578125 " fill-opacity="1" fill-rule="nonzero"/></g><g clip-path="url(#bae753ebd1)"><g transform="matrix(1, 0, 0, 1, 182, 0.000000000000012869)"><g clip-path="url(#fc86f7ffcc)"><g fill="#8b5cf6" fill-opacity="1"><g transform="translate(0.390095, 126.106107)"><g><path d="M 87.707031 0 C 85.324219 -3.40625 84.132812 -10.390625 84.132812 -16.691406 L 84.132812 -63.523438 C 84.132812 -79.363281 73.742188 -89.921875 47.515625 -89.921875 C 20.097656 -89.921875 9.195312 -78.511719 8.003906 -59.949219 L 29.121094 -59.949219 C 29.972656 -70.679688 35.082031 -73.914062 47.34375 -73.914062 C 59.777344 -73.914062 63.355469 -69.828125 63.355469 -63.015625 C 63.355469 -56.542969 59.097656 -53.988281 50.921875 -52.964844 L 37.636719 -51.773438 C 12.773438 -49.390625 3.917969 -39 3.917969 -24.355469 C 3.917969 -7.324219 16.859375 2.042969 35.59375 2.042969 C 48.539062 2.042969 58.074219 -2.554688 63.867188 -10.730469 C 64.207031 -6.472656 64.886719 -2.382812 66.25 0 Z M 40.703125 -13.285156 C 30.824219 -13.285156 25.886719 -17.882812 25.886719 -25.207031 C 25.886719 -32.1875 29.804688 -36.445312 41.726562 -37.808594 L 53.304688 -39.171875 C 57.90625 -39.683594 61.140625 -40.703125 63.355469 -42.746094 L 63.355469 -34.742188 C 63.355469 -19.414062 52.113281 -13.285156 40.703125 -13.285156 Z M 40.703125 -13.285156 "/></g></g></g><g fill="#8b5cf6" fill-opacity="1"><g transform="translate(97.28243, 126.106107)"><g><path d="M 56.882812 -89.921875 C 44.449219 -89.921875 35.082031 -83.621094 29.464844 -75.277344 L 29.464844 -87.878906 L 8.6875 -87.878906 L 8.6875 0 L 30.144531 0 L 30.144531 -49.21875 C 30.144531 -64.886719 40.363281 -71.359375 49.730469 -71.359375 C 60.628906 -71.359375 66.25 -65.910156 66.25 -54.667969 L 66.25 0 L 87.707031 0 L 87.707031 -58.246094 C 87.707031 -79.191406 75.277344 -89.921875 56.882812 -89.921875 Z M 56.882812 -89.921875 "/></g></g></g><g fill="#8b5cf6" fill-opacity="1"><g transform="translate(198.77241, 126.106107)"><g><path d="M 43.257812 2.382812 C 67.78125 2.382812 82.257812 -7.492188 82.257812 -25.207031 C 82.257812 -40.363281 72.890625 -48.195312 51.773438 -51.945312 L 40.703125 -53.648438 C 31.167969 -55.351562 26.058594 -57.90625 26.058594 -64.375 C 26.058594 -70.679688 30.996094 -74.59375 41.386719 -74.59375 C 52.453125 -74.59375 59.4375 -71.359375 59.949219 -60.117188 L 80.214844 -60.117188 C 79.535156 -78.171875 68.464844 -89.921875 41.386719 -89.921875 C 17.882812 -89.921875 4.9375 -79.875 4.9375 -63.355469 C 4.9375 -48.367188 14.816406 -40.023438 33.722656 -36.785156 L 43.769531 -35.082031 C 57.054688 -32.871094 60.96875 -29.804688 60.96875 -23.503906 C 60.96875 -16.859375 56.03125 -12.945312 43.597656 -12.945312 C 30.824219 -12.945312 25.207031 -16.859375 24.011719 -27.929688 L 3.066406 -27.929688 C 4.429688 -6.640625 18.222656 2.382812 43.257812 2.382812 Z M 43.257812 2.382812 "/></g></g></g><g fill="#8b5cf6" fill-opacity="1"><g transform="translate(288.853419, 126.106107)"><g><path d="M 43.257812 2.382812 C 67.78125 2.382812 82.257812 -7.492188 82.257812 -25.207031 C 82.257812 -40.363281 72.890625 -48.195312 51.773438 -51.945312 L 40.703125 -53.648438 C 31.167969 -55.351562 26.058594 -57.90625 26.058594 -64.375 C 26.058594 -70.679688 30.996094 -74.59375 41.386719 -74.59375 C 52.453125 -74.59375 59.4375 -71.359375 59.949219 -60.117188 L 80.214844 -60.117188 C 79.535156 -78.171875 68.464844 -89.921875 41.386719 -89.921875 C 17.882812 -89.921875 4.9375 -79.875 4.9375 -63.355469 C 4.9375 -48.367188 14.816406 -40.023438 33.722656 -36.785156 L 43.769531 -35.082031 C 57.054688 -32.871094 60.96875 -29.804688 60.96875 -23.503906 C 60.96875 -16.859375 56.03125 -12.945312 43.597656 -12.945312 C 30.824219 -12.945312 25.207031 -16.859375 24.011719 -27.929688 L 3.066406 -27.929688 C 4.429688 -6.640625 18.222656 2.382812 43.257812 2.382812 Z M 43.257812 2.382812 "/></g></g></g><g fill="#8b5cf6" fill-opacity="1"><g transform="translate(378.934427, 126.106107)"><g><path d="M 48.539062 2.042969 C 69.65625 2.042969 84.8125 -9.539062 89.410156 -27.25 L 68.632812 -27.25 C 65.570312 -19.414062 58.925781 -14.644531 48.707031 -14.644531 C 36.277344 -14.644531 27.589844 -21.800781 25.886719 -37.296875 L 91.625 -37.296875 L 91.625 -42.40625 C 91.625 -70.335938 75.105469 -89.921875 48.195312 -89.921875 C 22.140625 -89.921875 4.769531 -71.53125 4.769531 -43.9375 C 4.769531 -15.839844 22.652344 2.042969 48.539062 2.042969 Z M 26.058594 -52.285156 C 28.101562 -66.589844 36.617188 -73.230469 48.027344 -73.230469 C 60.800781 -73.230469 68.464844 -64.71875 70.167969 -52.285156 Z M 26.058594 -52.285156 "/></g></g></g><g fill="#8b5cf6" fill-opacity="1"><g transform="translate(480.764973, 126.106107)"><g><path d="M 55.691406 -89.242188 C 42.066406 -89.242188 33.722656 -82.089844 29.464844 -72.210938 L 29.464844 -87.878906 L 8.6875 -87.878906 L 8.6875 0 L 30.144531 0 L 30.144531 -44.621094 C 30.144531 -61.3125 39.683594 -69.144531 55.519531 -69.144531 L 60.96875 -69.144531 L 60.96875 -88.902344 C 59.097656 -89.242188 57.5625 -89.242188 55.691406 -89.242188 Z M 55.691406 -89.242188 "/></g></g></g></g></g></g></g></g></g></svg>