<svg xmlns="http://www.w3.org/2000/svg" zoomAndPan="magnify" viewBox="0 0 750 749.999995" preserveAspectRatio="xMidYMid meet" version="1.0"><defs><clipPath><path d="M 28.125 0 L 721.875 0 L 721.875 750 L 28.125 750 Z M 28.125 0 " clip-rule="nonzero"/></clipPath><clipPath><path d="M 75 297.597656 L 96.796875 297.597656 L 96.796875 319.398438 L 75 319.398438 Z M 75 297.597656 " clip-rule="nonzero"/></clipPath><clipPath><path d="M 0 0.597656 L 21.796875 0.597656 L 21.796875 22.398438 L 0 22.398438 Z M 0 0.597656 " clip-rule="nonzero"/></clipPath><clipPath><rect x="0" y="0"/></clipPath></defs><g clip-path="url(#bc8a33b4c7)"><path fill="#8c52ff" d="M 623.152344 -0.0390625 L 165.464844 -0.0390625 C 110.535156 -0.0390625 62.503906 33.128906 62.503906 88.0625 L 62.503906 413.9375 L 210.625 204.515625 L 295.394531 204.515625 L 28.394531 602.253906 L 139.121094 602.253906 L 452.160156 147.6875 L 536.933594 147.6875 L 122.320312 750 L 238.625 750 L 505.871094 352.242188 L 590.621094 352.242188 L 390.203125 647.714844 L 623.132812 647.714844 C 678.082031 647.714844 721.605469 600.65625 721.605469 545.726562 L 721.605469 88.0625 C 721.605469 33.128906 678.082031 -0.0390625 623.132812 -0.0390625 Z M 623.152344 -0.0390625 " fill-opacity="1" fill-rule="nonzero"/></g><g clip-path="url(#29429543b6)"><g transform="matrix(1, 0, 0, 1, 75, 297)"><g clip-path="url(#2e9c26c22d)"><g clip-path="url(#1136f52f1d)"><path fill="#8c52ff" d="M 0 0.597656 L 21.796875 0.597656 L 21.796875 22.398438 L 0 22.398438 Z M 0 0.597656 " fill-opacity="1" fill-rule="nonzero"/></g></g></g></g></svg>