<svg xmlns="http://www.w3.org/2000/svg" zoomAndPan="magnify" viewBox="0 0 750 749.999995" preserveAspectRatio="xMidYMid meet" version="1.0"><path fill="#61fb7d" d="M 637.144531 109.285156 C 567.039062 39.105469 473.808594 0.382812 374.46875 0.382812 C 169.78125 0.382812 3.1875 166.941406 3.113281 371.703125 C 3.113281 437.140625 20.195312 501.058594 52.691406 557.34375 L 0 749.765625 L 196.867188 698.113281 C 251.117188 727.71875 312.179688 743.28125 374.320312 743.316406 L 374.46875 743.316406 C 579.117188 743.316406 745.75 576.722656 745.789062 372 C 745.789062 272.769531 707.25 179.503906 637.109375 109.285156 Z M 374.46875 680.621094 L 374.355469 680.621094 C 319 680.621094 264.640625 665.726562 217.246094 637.601562 L 205.984375 630.894531 L 89.152344 661.539062 L 120.316406 547.636719 L 112.976562 535.964844 C 82.074219 486.828125 65.769531 430.023438 65.808594 371.703125 C 65.882812 201.550781 204.351562 63.078125 374.578125 63.078125 C 457.023438 63.078125 534.503906 95.242188 592.789062 153.601562 C 651.078125 211.925781 683.128906 289.480469 683.089844 371.960938 C 683.019531 542.152344 544.546875 680.621094 374.429688 680.621094 Z M 543.769531 449.480469 C 534.503906 444.847656 488.890625 422.390625 480.367188 419.316406 C 471.847656 416.203125 465.695312 414.683594 459.507812 423.949219 C 453.320312 433.25 435.535156 454.148438 430.125 460.335938 C 424.714844 466.523438 419.304688 467.300781 410.003906 462.632812 C 400.738281 458 370.835938 448.183594 335.375 416.574219 C 307.808594 391.972656 289.171875 361.585938 283.761719 352.285156 C 278.351562 342.984375 283.203125 337.984375 287.835938 333.351562 C 291.984375 329.199219 297.097656 322.496094 301.769531 317.085938 C 306.398438 311.675781 307.957031 307.785156 311.03125 301.597656 C 314.144531 295.40625 312.589844 289.996094 310.253906 285.328125 C 307.917969 280.699219 289.390625 235.007812 281.648438 216.445312 C 274.125 198.363281 266.457031 200.808594 260.785156 200.511719 C 255.375 200.253906 249.1875 200.179688 243 200.179688 C 236.8125 200.179688 226.769531 202.476562 218.25 211.777344 C 209.726562 221.078125 185.789062 243.53125 185.789062 289.183594 C 185.789062 334.832031 219.027344 378.964844 223.695312 385.191406 C 228.328125 391.378906 289.132812 485.085938 382.210938 525.292969 C 404.332031 534.851562 421.636719 540.558594 435.125 544.855469 C 457.359375 551.933594 477.589844 550.933594 493.558594 548.523438 C 511.382812 545.855469 548.4375 526.070312 556.179688 504.394531 C 563.925781 482.714844 563.925781 464.152344 561.589844 460.261719 C 559.257812 456.371094 553.070312 454.074219 543.804688 449.40625 Z M 543.769531 449.480469 " fill-opacity="1" fill-rule="evenodd"/></svg>